# xmcd
#
# Track frame offsets:
# 182
# 11452
# 23885
# 34717
# 43485
# 51517
# 65157
# 75195
# 86175
# 96860
# 108787
# 119722
# 131632
# 143335
# 155585
# 168455
# 180382
# 193765
# 205215
# 215802
# 225507
# 237917
# 248555
# 259885
# 270752
#
# Disc length: 3797 seconds
#
#
# Revision: 5
# Processed by: cddbd v1.5.2PL0 Copyright (c) Steve Scherf et al.
# Submitted via: FreeRIP 2.945 
#
DISCID=5d0ed319
DTITLE=Various Artist - Send Me The Pillow That You Dream On - 25 Country Love Songs
DYEAR=1993
DGENRE=Country
TTITLE0=Hank Locklin - Send Me The Pillow You Dream On
TTITLE1=Kenny Rogers - Reuben James
TTITLE2=Willie Nelson - I Feel Sorry For Him
TTITLE3=Patsy Cline - Come On In
TTITLE4=Johnny Cash - Hey Good Lookin'
TTITLE5=Willie Nelson - You'll Always Have Someone
TTITLE6=Dave Dudley - Six Days On The Road
TTITLE7=Kenny Rogers - Always Leaving, Always Gone
TTITLE8=Waylon Jennings - Burning Memories
TTITLE9=Patsy Cline - Walkin' After Midnight
TTITLE10=Guy Mitchell - Singin' The Blues
TTITLE11=Roy Drusky - Take These Chains From My Heart
TTITLE12=Frankie Laine - Mule Train
TTITLE13=Waylon Jennings - Don't Think Twice
TTITLE14=Willie Nelson - If I Don't Understand
TTITLE15=Johnny Lee - Ramblin' Rose
TTITLE16=Lynn Anderson - Rose Garden
TTITLE17=Patsy Cline - The Heart You Break May Be Your Own
TTITLE18=Kenny Rogers - Ticket To Nowhere
TTITLE19=Barbara Mandrell - Release Me
TTITLE20=Willie Nelson - I Can't Find The Time
TTITLE21=Stonewall Jackson - Waterloo
TTITLE22=Roy Drusky - The Last Letter
TTITLE23=Freddy Fender - Wild Side Of Life
TTITLE24=Kenny Rogers - Sunshine
EXTD=
EXTT0=
EXTT1=
EXTT2=
EXTT3=
EXTT4=
EXTT5=
EXTT6=
EXTT7=
EXTT8=
EXTT9=
EXTT10=
EXTT11=
EXTT12=
EXTT13=
EXTT14=
EXTT15=
EXTT16=
EXTT17=
EXTT18=
EXTT19=
EXTT20=
EXTT21=
EXTT22=
EXTT23=
EXTT24=
PLAYORDER=
